<svg xmlns="http://www.w3.org/2000/svg" viewBox="0 0 21 21" shape-rendering="crispEdges" role="img" aria-label="Teamster Time Changes Dashboard">
  <g fill="#2a2140">
    <rect x="4" y="2" width="14" height="18"/>
    <rect x="2" y="4" width="18" height="14"/>
  </g>
  <g fill="#6428f0">
    <rect x="3" y="1" width="14" height="18"/>
    <rect x="1" y="3" width="18" height="14"/>
  </g>
  <rect x="3" y="3" width="14" height="14" fill="#f7f5fb"/>
  <rect x="5" y="5" width="10" height="10" fill="#ffffff"/>
  <g fill="#241838">
    <rect x="9" y="5" width="2" height="1"/>
    <rect x="9" y="14" width="2" height="1"/>
    <rect x="5" y="9" width="1" height="2"/>
    <rect x="14" y="9" width="1" height="2"/>
    <rect x="9" y="6" width="2" height="5"/>
  </g>
  <g fill="#ff7a18">
    <rect x="10" y="9" width="2" height="2"/>
    <rect x="12" y="10" width="2" height="2"/>
    <rect x="14" y="3" width="2" height="2"/>
  </g>
  <rect x="9" y="9" width="2" height="2" fill="#241838"/>
  <rect x="14" y="3" width="1" height="1" fill="#ffe0c2"/>
</svg>
